<?xml version="1.0" encoding="utf-8"?>
<!-- Generator: Adobe Illustrator 16.0.0, SVG Export Plug-In . SVG Version: 6.00 Build 0)  -->
<!DOCTYPE svg PUBLIC "-//W3C//DTD SVG 1.1//EN" "http://www.w3.org/Graphics/SVG/1.1/DTD/svg11.dtd">
<svg version="1.1" id="_x31_" xmlns="http://www.w3.org/2000/svg" xmlns:xlink="http://www.w3.org/1999/xlink" x="0px" y="0px"
	 width="300px" height="206.704px" viewBox="0 0 300 206.704" enable-background="new 0 0 300 206.704" xml:space="preserve">
<path fill-rule="evenodd" clip-rule="evenodd" fill="#2A3141" d="M150.002,17.044l-17.571,51.43l-2.912-8.522
	C136.347,39.968,143.173,19.984,150.002,0l52.61,153.989h-5.824L150.002,17.044z"/>
<path fill-rule="evenodd" clip-rule="evenodd" fill="#ACADAF" d="M97.391,153.99h5.823l23.393-68.472l23.395,68.472h5.823
	l-29.218-85.516C116.869,96.979,107.129,125.486,97.391,153.99z"/>
<rect x="70.181" y="115.494" fill-rule="evenodd" clip-rule="evenodd" fill="#ACADAF" width="85.644" height="2.754"/>
<path fill-rule="evenodd" clip-rule="evenodd" fill="#ACADAF" d="M54.354,204.433l-1.264-3.045h-4.603l-1.296,3.045h-1.329
	l4.975-11.326l4.845,11.326H54.354L54.354,204.433z M48.957,200.253h3.663l-1.815-4.328L48.957,200.253L48.957,200.253z
	 M61.922,193.625h6.58v9.676h1.231v3.402h-1.134v-2.27h-7.649v2.27h-1.134V203.3c0.367,0.01,0.702-0.123,1.005-0.398
	s0.54-0.629,0.713-1.061c0.259-0.66,0.389-1.605,0.389-2.836V193.625L61.922,193.625z M63.121,194.759v4.246
	c0,1.328-0.13,2.334-0.389,3.014c-0.184,0.486-0.459,0.912-0.827,1.281h5.397v-8.541H63.121L63.121,194.759z M75.129,193.625h1.945
	c1.081,0,1.907,0.227,2.479,0.68c0.648,0.498,0.972,1.244,0.972,2.236c0,0.93-0.356,1.639-1.069,2.125
	c0.691,0.172,1.208,0.52,1.547,1.045c0.34,0.523,0.511,1.082,0.511,1.678c0,0.484-0.105,0.934-0.316,1.344
	c-0.211,0.41-0.473,0.74-0.786,0.988c-0.605,0.477-1.469,0.713-2.593,0.713h-2.69V193.625L75.129,193.625z M76.329,194.759v3.613
	h0.908c0.162,0,0.318-0.008,0.47-0.023c0.151-0.018,0.333-0.061,0.543-0.131s0.395-0.164,0.551-0.283
	c0.156-0.119,0.289-0.297,0.397-0.535c0.108-0.236,0.162-0.512,0.162-0.826c0-0.334-0.065-0.623-0.195-0.867
	c-0.129-0.242-0.275-0.424-0.438-0.543s-0.356-0.211-0.583-0.275c-0.228-0.064-0.4-0.102-0.519-0.113
	c-0.119-0.01-0.238-0.016-0.357-0.016H76.329L76.329,194.759z M76.329,199.443v3.857h1.377c0.875,0,1.507-0.152,1.896-0.455
	c0.476-0.346,0.713-0.842,0.713-1.49c0-0.725-0.308-1.254-0.923-1.588c-0.389-0.217-1-0.324-1.831-0.324H76.329L76.329,199.443z
	 M96.529,203.025c-1.086,1.068-2.417,1.604-3.995,1.604c-1.578,0-2.909-0.535-3.995-1.604c-1.085-1.07-1.628-2.398-1.628-3.988
	c0-1.598,0.545-2.93,1.637-3.994s2.42-1.596,3.987-1.596c1.566,0,2.895,0.531,3.986,1.596s1.637,2.396,1.637,3.994
	C98.158,200.626,97.615,201.955,96.529,203.025L96.529,203.025z M95.646,195.876c-0.854-0.863-1.891-1.297-3.111-1.297
	c-1.221,0-2.258,0.434-3.112,1.297c-0.854,0.865-1.28,1.918-1.28,3.16s0.427,2.297,1.28,3.16c0.854,0.865,1.891,1.297,3.112,1.297
	c1.221,0,2.258-0.432,3.111-1.297c0.854-0.863,1.28-1.918,1.28-3.16S96.5,196.742,95.646,195.876L95.646,195.876z M105.337,193.625
	v4.635l4.603-4.635h1.621l-5.056,5.041l5.218,5.768h-1.653l-4.424-4.959l-0.308,0.309v4.65h-1.199v-10.809H105.337L105.337,193.625z
	 M124.346,204.433l-1.264-3.045h-4.603l-1.297,3.045h-1.328l4.975-11.326l4.846,11.326H124.346L124.346,204.433z M118.95,200.253
	h3.663l-1.815-4.328L118.95,200.253L118.95,200.253z M136.063,194.759h-2.625v9.674h-1.199v-9.674h-2.625v-1.135h6.449V194.759
	L136.063,194.759z M149.158,194.515v1.492c-0.434-0.432-0.902-0.768-1.41-1.006c-0.617-0.279-1.237-0.422-1.864-0.422
	c-1.242,0-2.277,0.436-3.104,1.305c-0.826,0.871-1.24,1.938-1.24,3.201c0,1.361,0.451,2.438,1.354,3.225
	c0.902,0.789,1.904,1.184,3.008,1.184c0.691,0,1.36-0.168,2.009-0.502c0.453-0.227,0.869-0.529,1.248-0.908v1.492
	c-0.984,0.701-2.068,1.053-3.257,1.053c-1.6,0-2.932-0.535-3.996-1.604c-1.064-1.07-1.596-2.389-1.596-3.955
	c0-1.609,0.537-2.949,1.611-4.02c1.076-1.068,2.424-1.604,4.045-1.604C147.154,193.447,148.219,193.802,149.158,194.515
	L149.158,194.515z M156.336,193.625v4.635l4.604-4.635h1.621l-5.057,5.041l5.219,5.768h-1.654l-4.424-4.959l-0.309,0.309v4.65
	h-1.199v-10.809H156.336L156.336,193.625z M177.155,203.025c-1.086,1.068-2.418,1.604-3.996,1.604c-1.576,0-2.908-0.535-3.994-1.604
	c-1.086-1.07-1.629-2.398-1.629-3.988c0-1.598,0.545-2.93,1.637-3.994s2.42-1.596,3.986-1.596s2.896,0.531,3.986,1.596
	c1.092,1.064,1.637,2.396,1.637,3.994C178.782,200.626,178.239,201.955,177.155,203.025L177.155,203.025z M176.27,195.876
	c-0.854-0.863-1.891-1.297-3.111-1.297s-2.258,0.434-3.111,1.297c-0.854,0.865-1.279,1.918-1.279,3.16s0.426,2.297,1.279,3.16
	c0.854,0.865,1.891,1.297,3.111,1.297s2.258-0.432,3.111-1.297c0.854-0.863,1.281-1.918,1.281-3.16S177.124,196.742,176.27,195.876
	L176.27,195.876z M190.37,193.625v1.135h-4.408v3.209h4.279v1.133h-4.279v4.199h4.408v1.133h-5.607v-10.809H190.37L190.37,193.625z
	 M200.125,204.433v-10.809h5.365v1.135h-4.166v3.354h1.459c2.484,0,3.727,1.016,3.727,3.047c0,1.016-0.316,1.816-0.947,2.398
	c-0.633,0.584-1.482,0.875-2.553,0.875H200.125L200.125,204.433z M201.325,199.248v4.053h1.395c0.918,0,1.582-0.201,1.992-0.6
	c0.379-0.357,0.568-0.871,0.568-1.541c0-0.777-0.293-1.322-0.875-1.637c-0.336-0.184-0.941-0.275-1.816-0.275H201.325
	L201.325,199.248z M213.69,198.13h1.652c0.195-1.352,0.797-2.469,1.809-3.355c1.01-0.885,2.229-1.328,3.654-1.328
	c1.598,0,2.92,0.523,3.961,1.572c1.043,1.047,1.564,2.387,1.564,4.018c0,1.611-0.523,2.945-1.572,4.004
	c-1.047,1.059-2.365,1.588-3.953,1.588c-1.568,0-2.863-0.523-3.891-1.572c-1.025-1.049-1.566-2.313-1.621-3.793h-1.604v5.17h-1.199
	v-10.809h1.199V198.13L213.69,198.13z M223.85,195.861c-0.832-0.854-1.846-1.281-3.045-1.281s-2.213,0.428-3.039,1.281
	s-1.24,1.912-1.24,3.176c0,1.266,0.414,2.322,1.24,3.178c0.826,0.854,1.84,1.279,3.039,1.279s2.213-0.426,3.045-1.279
	c0.832-0.855,1.248-1.912,1.248-3.178C225.098,197.773,224.682,196.714,223.85,195.861L223.85,195.861z M232.311,193.625h1.961
	c1.23,0,2.139,0.254,2.723,0.762c0.658,0.561,0.988,1.334,0.988,2.318c0,0.842-0.283,1.557-0.852,2.146
	c-0.566,0.588-1.424,0.883-2.568,0.883h-1.053v4.699h-1.199V193.625L232.311,193.625z M233.51,194.759v3.84h0.988
	c0.713,0,1.271-0.172,1.678-0.518c0.404-0.346,0.607-0.826,0.607-1.443c0-1.252-0.795-1.879-2.383-1.879H233.51L233.51,194.759z
	 M252.512,203.025c-1.086,1.068-2.418,1.604-3.996,1.604c-1.576,0-2.908-0.535-3.994-1.604c-1.086-1.07-1.629-2.398-1.629-3.988
	c0-1.598,0.545-2.93,1.637-3.994s2.42-1.596,3.986-1.596s2.896,0.531,3.986,1.596c1.092,1.064,1.637,2.396,1.637,3.994
	C254.139,200.626,253.598,201.955,252.512,203.025L252.512,203.025z M251.627,195.876c-0.854-0.863-1.891-1.297-3.111-1.297
	s-2.258,0.434-3.111,1.297c-0.854,0.865-1.279,1.918-1.279,3.16s0.426,2.297,1.279,3.16c0.854,0.865,1.891,1.297,3.111,1.297
	s2.258-0.432,3.111-1.297c0.854-0.863,1.281-1.918,1.281-3.16S252.481,196.742,251.627,195.876z"/>
<path fill-rule="evenodd" clip-rule="evenodd" fill="#2A3141" d="M14.154,182.814l-2.106-5.076H4.376l-2.161,5.076H0l8.292-18.879
	l8.076,18.879H14.154L14.154,182.814z M5.16,175.847h6.104l-3.025-7.213L5.16,175.847L5.16,175.847z M25.201,182.814V164.8h8.211
	v1.891H27.2v16.123H25.201L25.201,182.814z M51.751,164.8v1.891h-7.347v5.348h7.131v1.891h-7.131v6.996h7.347v1.889h-9.345V164.8
	H51.751L51.751,164.8z M71.064,164.8v1.891h-7.347v5.348h7.131v1.891h-7.131v6.996h7.347v1.889h-9.346V164.8H71.064L71.064,164.8z
	 M81.031,164.8h3.241c1.801,0,3.178,0.377,4.133,1.133c1.08,0.83,1.621,2.072,1.621,3.729c0,1.549-0.594,2.727-1.783,3.537
	c1.152,0.289,2.012,0.869,2.58,1.742s0.851,1.805,0.851,2.797c0,0.811-0.175,1.557-0.526,2.24c-0.352,0.686-0.788,1.234-1.311,1.648
	c-1.008,0.793-2.449,1.188-4.321,1.188h-4.483V164.8L81.031,164.8z M83.029,166.691v6.023h1.513c0.27,0,0.531-0.014,0.783-0.041
	c0.252-0.027,0.554-0.1,0.905-0.217s0.657-0.273,0.918-0.473c0.261-0.197,0.481-0.494,0.662-0.891s0.27-0.855,0.27-1.379
	c0-0.557-0.108-1.039-0.324-1.443c-0.216-0.406-0.459-0.707-0.729-0.906c-0.27-0.197-0.594-0.352-0.973-0.459
	s-0.666-0.17-0.864-0.189c-0.198-0.018-0.396-0.025-0.594-0.025H83.029L83.029,166.691z M83.029,174.496v6.43h2.295
	c1.459,0,2.512-0.254,3.161-0.758c0.792-0.576,1.188-1.404,1.188-2.484c0-1.207-0.513-2.088-1.54-2.646
	c-0.648-0.361-1.666-0.541-3.052-0.541H83.029L83.029,174.496z M120.465,182.814v-13.746l-12.533,14.559V164.8h1.999v13.801
	l12.532-14.559v18.771H120.465L120.465,182.814z M139.696,164.8h13.236v18.014h-2v-16.123h-9.238v16.123h-1.998V164.8L139.696,164.8
	z M175.917,182.814l-2.105-5.076h-7.672l-2.16,5.076h-2.215l8.291-18.879l8.076,18.879H175.917L175.917,182.814z M166.922,175.847
	h6.105l-3.025-7.213L166.922,175.847L166.922,175.847z M186.965,164.8h3.268c2.053,0,3.564,0.422,4.537,1.268
	c1.1,0.938,1.648,2.225,1.648,3.863c0,1.404-0.473,2.598-1.418,3.578c-0.945,0.982-2.373,1.473-4.281,1.473h-1.756v7.832h-1.998
	V164.8L186.965,164.8z M188.963,166.691v6.4h1.646c1.189,0,2.121-0.289,2.797-0.863c0.674-0.576,1.012-1.379,1.012-2.404
	c0-2.09-1.322-3.133-3.971-3.133H188.963L188.963,166.691z M214.379,166.691h-4.375v16.123h-2v-16.123h-4.375V164.8h10.75V166.691
	L214.379,166.691z M225.372,164.8v7.318h9.238V164.8h1.998v18.014h-1.998v-8.805h-9.238v8.805h-1.998V164.8H225.372L225.372,164.8z
	 M256.893,164.8v1.891h-7.348v5.348h7.131v1.891h-7.131v6.996h7.348v1.889h-9.346V164.8H256.893L256.893,164.8z M266.86,164.8h3.268
	c2.053,0,3.566,0.422,4.537,1.268c1.1,0.938,1.648,2.225,1.648,3.863c0,1.404-0.473,2.598-1.418,3.578
	c-0.945,0.982-2.373,1.473-4.281,1.473h-1.756v7.832h-1.998V164.8L266.86,164.8z M268.858,166.691v6.4h1.648
	c1.188,0,2.121-0.289,2.795-0.863c0.676-0.576,1.014-1.379,1.014-2.404c0-2.09-1.324-3.133-3.971-3.133H268.858L268.858,166.691z
	 M285.469,182.814V164.8h1.998v7.48h2.432c4.143,0,6.213,1.693,6.213,5.078c0,1.693-0.527,3.025-1.58,3.998
	c-1.055,0.973-2.473,1.457-4.254,1.457H285.469L285.469,182.814z M287.467,174.171v6.754h2.324c1.531,0,2.639-0.334,3.322-1
	c0.631-0.594,0.945-1.449,0.945-2.566c0-1.297-0.486-2.205-1.459-2.729c-0.559-0.305-1.566-0.459-3.025-0.459H287.467
	L287.467,174.171z M298.002,164.8H300v18.014h-1.998V164.8z"/>
</svg>
